<?xml version="1.0" encoding="utf-8"?>
<svg viewBox="0 0 129 129" xmlns="http://www.w3.org/2000/svg">
  <defs/>
  <path d="M 92.234 24.449 L 67.25 49.394 C 62.584 54.052 54.992 54.052 50.327 49.394 C 45.661 44.734 45.66 37.155 50.327 32.497 L 75.311 7.55 C 79.977 2.891 87.569 2.891 92.235 7.55 C 96.903 12.163 96.903 19.788 92.235 24.449 L 92.234 24.449 Z" style="fill: rgb(135, 141, 150);"/>
  <path d="M 91.997 73.728 L 67.721 97.967 C 63.054 102.627 55.464 102.627 50.796 97.967 C 46.13 93.306 46.13 85.729 50.796 81.069 L 75.075 56.83 C 79.742 52.17 87.332 52.17 91.997 56.83 C 96.665 61.49 96.665 69.067 91.997 73.728 Z" style="fill: rgb(135, 141, 150);"/>
  <path d="M 43.153 73.384 C 47.866 68.68 47.911 61.095 43.254 56.445 C 38.595 51.794 30.998 51.838 26.286 56.544 C 21.572 61.25 21.529 68.833 26.187 73.484 C 30.843 78.134 38.44 78.09 43.152 73.384 L 43.153 73.384 Z" style="fill: rgb(135, 141, 150);"/>
  <path d="M 92.361 122.539 C 97.073 117.835 97.117 110.249 92.46 105.6 C 87.802 100.949 80.206 100.994 75.494 105.7 C 70.781 110.404 70.737 117.989 75.394 122.639 C 80.05 127.29 87.647 127.245 92.359 122.539 L 92.361 122.539 Z" style="fill: rgb(135, 141, 150);"/>
</svg>