<svg viewBox="0 0 37 41" xmlns="http://www.w3.org/2000/svg" width="50px" height="88px" fill="#2C2E2F">
    <g transform="translate(.906 1)" fill="none" fillRule="evenodd">
        <g stroke="#020303" strokeLinecap="round" strokeLinejoin="round" strokeWidth=".9">
            <path d="M6.019 10.156v13.33M10.62 26.924H4.261a.686.686 0 0 0-.702.678v1.992c0 .374-.315.678-.715.678H.74c-.393 0-.713.296-.713.677v1.992c0 .375.31.678.7.678h32.146a.686.686 0 0 0 .701-.678V30.95c0-.374-.314-.677-.715-.677h-2.102c-.395 0-.715-.298-.715-.678v-1.992a.693.693 0 0 0-.7-.678H13.969a.688.688 0 0 1-.7-.675V10.235" />
            <path d="M27.394 21.554v-11.37c0-.459.4-.83.88-.83h3.712c1.365 0 1.496-.51.305-1.13L17.725.632c-.51-.266-1.344-.264-1.849 0L1.31 8.225c-1.195.622-1.056 1.128.307 1.128h17.832c.489 0 .884.372.884.83v14.231" />
        </g>
        <ellipse cx="27.391" cy="30.949" rx="8.609" ry="8.227" fill="#FFF" />
        <g strokeLinecap="round" strokeLinejoin="round" strokeWidth=".9">
            <path
                d="m27.247 37.904c3.811 0 6.9-3.048 6.9-6.807 0-3.76-3.089-6.808-6.9-6.808-3.81 0-6.9 3.048-6.9 6.808s3.09 6.807 6.9 6.807z"
                stroke="#020303"
            />
            <path d="m31.08 30.845h-7.666m4.089-3.53v7.564" stroke="#2C2E2F" />
        </g>
    </g>
</svg>